<svg id="Layer_1" data-name="Layer 1" xmlns="http://www.w3.org/2000/svg" viewBox="0 0 178 130">
  <defs>
    <style>
      .cls-1 {
        fill: #00a950;
      }

      .cls-1, .cls-2, .cls-3, .cls-4 {
        stroke-width: 0px;
      }

      .cls-2 {
        fill: #222;
      }

      .cls-3 {
        fill: #cde8d8;
        fill-rule: evenodd;
      }

      .cls-4 {
        fill: #fff;
      }
    </style>
  </defs>
  <g id="Layer_1-2" data-name="Layer 1">
    <g>
      <path class="cls-3" d="M57.32,93.33c-13.63-10.68-31.26-22.11-29.74-36.5,1.49-14.2,21.1-19.1,36.24-25.08,13.03-5.15,27.11-10.54,41.67-5.71,14.5,4.81,24.45,16.75,28.51,29,3.54,10.67-4.12,19.43-9.32,28.81-6.46,11.65-7.9,28.39-23.61,30.6-16.36,2.31-30.78-10.95-43.76-21.12Z"/>
      <path class="cls-4" d="M77.14,99.01h-4.17l29.93-61.79,40.07.94,4.18,11.08-1.26,47.71s-10.1,3.01-10.49,2.72-58.25-.65-58.25-.65Z"/>
      <g>
        <g>
          <path class="cls-2" d="M86.05,50.02h-33.55c-1.86,0-3.37-1.51-3.37-3.37s1.51-3.37,3.37-3.37h33.55c1.86,0,3.37,1.51,3.37,3.37s-1.51,3.37-3.37,3.37Z"/>
          <path class="cls-2" d="M64.57,92.87h-21.97c-1.86,0-3.37-1.51-3.37-3.37s1.51-3.37,3.37-3.37h21.97c1.86,0,3.37,1.51,3.37,3.37s-1.51,3.37-3.37,3.37Z"/>
          <path class="cls-2" d="M64.47,71.45h-31.62c-1.86,0-3.37-1.51-3.37-3.37s1.51-3.37,3.37-3.37h31.62c1.86,0,3.37,1.51,3.37,3.37s-1.51,3.37-3.37,3.37Z"/>
        </g>
        <g>
          <path class="cls-2" d="M150.6,45.04c0-6.19-5.05-11.23-11.26-11.23l-31.79.12h-3.06s-3.31,6.83-3.31,6.83l6.37.02,31.8-.12c2.43,0,4.41,1.96,4.41,4.38l.05,23.02-.05,23.04c0,2.41-1.98,4.38-4.41,4.38l-31.83-.12-32.85.11-3.32,6.85,36.17-.11,31.81.12h0c6.21,0,11.25-5.03,11.25-11.22l.05-23.05s-.05-23.03-.05-23.03Z"/>
          <path class="cls-1" d="M136.88,59.32c-6.49-1.84-10.92-6.27-12.65-12.65h-25.91l-21.18,42.84h47.09c1.73-6.4,6.16-10.84,12.65-12.67l.02-8.76-.02-8.76ZM115.1,73.84c-.33,2.49-1.84,4.37-4.3,5.42-.26.11-.53.19-.79.28l-.39.11v3.8h-4.43v-3.54l-.51-.06c-.3-.05-.63-.11-.96-.16-1.09-.21-2.12-.61-3.1-1.18-.63-.39-.87-1.07-.61-1.77.18-.46.33-.9.48-1.35l.64-1.79,1.62.88c1.33.72,2.62,1.07,3.93,1.07h.29c.52-.02,1.07-.13,1.51-.31.81-.35,1.35-.98,1.46-1.79.13-.85-.24-1.68-.98-2.3-.77-.59-1.66-.98-2.69-1.4-1.12-.46-2.58-1.11-3.89-2.19-1.4-1.16-2.2-2.9-2.18-4.76.02-1.97.96-3.85,2.47-5.03.74-.56,1.57-1,2.49-1.29l.4-.13v-3.65h4.3v3.41l.45.09c.42.07.81.13,1.2.24.57.15,1.11.39,1.62.63l.39.18c.61.26.94,1.05.72,1.66-.2.51-.39,1.01-.65,1.62l-.66,1.68-1.09-.64c-.72-.44-1.49-.72-2.3-.85-1.23-.2-2.14-.18-2.84.06-1.05.35-1.27,1.01-1.36,1.47-.13.81.11,1.38.7,1.77.72.44,1.53.85,2.56,1.29,1.16.5,2.47,1.07,3.67,1.92,2.23,1.59,3.21,3.89,2.84,6.6h0Z"/>
        </g>
      </g>
    </g>
  </g>
</svg>